<?xml version="1.0" standalone="no"?><!DOCTYPE svg PUBLIC "-//W3C//DTD SVG 1.1//EN" "http://www.w3.org/Graphics/SVG/1.1/DTD/svg11.dtd"><svg t="1562035060534" class="icon" viewBox="0 0 1024 1024" version="1.1" xmlns="http://www.w3.org/2000/svg" p-id="14104" xmlns:xlink="http://www.w3.org/1999/xlink" width="200" height="200"><defs><style type="text/css"></style></defs><path d="M326.9 507.8c69.6-134 155.3-197.5 229-201.5-19.5-5.3-37.8-6.2-55-2.5-70.3 15.2-122.7 104.7-178.3 199.4l-19.5 35c-8.5 16.2-16.6 32.7-23.8 48.8-3.6 8.1-7.1 17.1-11.1 28.2l-13.7 38.7c-4.2 11.8-7.8 23.6-10.7 34.9 8.1-24 18.9-49.5 31.5-76 12.6-31.8 29.2-66.8 51.6-105z" fill="#EABEB0" p-id="14105"></path><path d="M512 0C229.2 0 0 229.2 0 512s229.2 512 512 512 512-229.2 512-512S794.8 0 512 0z m352.7 365.6c-1.9 6.8-6.7 12.2-13.2 14.9-48.6 20.8-80.6 29.2-104.7 29.2-5.7 0-10.9-0.6-15.9-1.5 5.9 12.7 9.8 25.7 11.6 39 10.7 79.4-51.9 155.8-124.4 244.3L606 706.3C534.4 794 449.5 851.7 374.3 870.1c-34.6 11.3-66.5 12.1-93.4 0.2-12.9-3.9-24.9-9.6-35.9-17.4-53.3-37.6-51.5-93.4-31.4-171.2 3.2-12.4 7.2-25.3 11.7-38.2l13.7-38.7c4.2-11.9 8-21.6 12-30.5 7.5-16.8 15.9-33.9 24.9-51l19.8-35.6C355 386.6 410.8 291.4 494.4 273.4c19.2-4.2 39.1-4 59.8 0.3-33.3-58.1-12.2-119.4-2.8-140.8 3-6.9 8.8-12 16-14.1 7.2-2.1 14.9-0.8 21.2 3.4 43.2 29.6 63.1 58.8 70 87.2 23.9-26.5 60.7-51.8 117.6-68.3 8-2.3 16.3-0.3 22.4 5.3 6 5.6 8.6 13.7 6.8 21.7-9.1 42-21.3 83.3-44.7 116.7 57.3 7.1 89.5 45.2 100.7 61.2 4 5.8 5.2 12.9 3.3 19.6z" fill="#FFD7CC" p-id="14106"></path><path d="M577.1 152.2c-12.1 31.7-25.2 95.7 39 144.6 0.2-0.6 0.4-1.1 0.6-1.7 1.8-10.9 5.2-24.4 11.7-39 6.8-34.9-0.8-67.3-51.3-103.9zM829.8 356c-15.6-18.7-46.1-43.8-95.9-40.9-13.8 12.1-30.3 22.2-50.1 29.8 4.8 3.7 9.3 7.2 13.4 10.5 30.8 24.8 45.5 36.6 132.6 0.6zM646.5 306.5c0.6 0.3 1.5 0.5 2.1 0.3l5-1.7c24.5-11.2 46.7-17.4 66.7-19.9 26.1-26.5 40.9-64.3 51.8-110.1-99.8 33.4-121.7 95.5-125.6 131.4z" fill="#91CC6A" p-id="14107"></path><path d="M760.7 284.9c23.3-33.5 35.6-74.8 44.7-116.7 1.7-8-0.8-16.1-6.8-21.7-6.1-5.6-14.4-7.6-22.4-5.3-56.8 16.5-93.6 41.8-117.6 68.3-6.9-28.3-26.8-57.6-70-87.2-6.2-4.3-13.9-5.5-21.2-3.4-7.2 2.1-13 7.2-16 14.1-9.4 21.5-30.4 82.8 2.8 140.8-20.7-4.4-40.6-4.5-59.8-0.3-83.6 17.9-139.4 113.1-198.7 214.2l-19.8 35.6c-9 17.1-17.4 34.2-24.9 51-4 8.9-7.8 18.6-12 30.5l-13.7 38.7c-4.6 12.9-8.5 25.8-11.7 38.2-20.1 77.8-21.8 133.6 31.4 171.2 11 7.7 23 13.5 35.9 17.4 13.6 4.1 28.2 6.2 43.6 6.2 15.9 0 32.6-2.2 49.8-6.4C449.5 851.7 534.4 794 606 706.3l12.1-14.8c72.5-88.5 135.1-164.9 124.4-244.3-1.8-13.3-5.7-26.3-11.6-39 5 0.9 10.1 1.5 15.9 1.5 24.1 0 56.1-8.4 104.7-29.2 6.4-2.8 11.3-8.2 13.2-14.9 1.9-6.7 0.7-13.8-3.2-19.5-11.3-16-43.5-54.1-100.8-61.2zM628.3 256c-6.4 14.7-9.9 28.2-11.7 39-0.2 0.6-0.4 1.1-0.6 1.7-64.2-48.8-51.1-112.9-39-144.6 50.6 36.7 58.2 69.1 51.3 103.9zM772 175c-10.9 45.9-25.7 83.6-51.8 110.1-20 2.6-42.2 8.8-66.7 19.9l-5 1.7c-0.5 0.2-1.4 0-2.1-0.3 4-35.8 25.9-97.9 125.6-131.4z m-88.2 169.9c19.8-7.5 36.2-17.7 50.1-29.8 49.8-3 80.4 22.1 95.9 40.9-87.2 36.1-101.8 24.3-132.6-0.5-4.1-3.4-8.5-6.9-13.4-10.6zM262.9 827.5c-2.6-1.8-4.9-3.7-7.2-5.7-10-8.7-16.8-18.8-20.5-31.5-6.7-22.8-3.7-54.1 8.4-100.9 0.1-0.2 0.1-0.5 0.2-0.7 2.9-11.3 6.5-23.1 10.7-34.9l13.7-38.7c3.9-11.1 7.5-20.1 11.1-28.2 7.2-16.1 15.3-32.7 23.8-48.8l19.5-35c55.6-94.8 108-184.2 178.3-199.4 17.2-3.7 35.5-2.8 55 2.5 22.9 6.2 47.3 18.4 74 37.2 15.9 11.3 29.2 22.5 40.5 33.9 24 24.2 37.8 48.6 41.2 74 8.9 66-49.7 137.5-117.6 220.4l-12.2 14.9C475.5 816.9 335.4 878.8 262.9 827.5z" fill="" p-id="14108"></path><path d="M280.9 870.3c26.9 11.8 58.8 11 93.4-0.2-17.2 4.2-33.9 6.4-49.8 6.4-15.4 0-30-2.1-43.6-6.2zM243.8 688.8c-0.1 0.2-0.1 0.5-0.2 0.7-12.1 46.8-15.2 78.1-8.4 100.9 3.3-36.1 8.1-96.2 40.2-177.6-12.7 26.5-23.4 52-31.6 76zM581.9 686.7l12.2-14.9c67.9-82.9 126.5-154.4 117.6-220.4-3.4-25.4-17.2-49.8-41.2-74 5.3 17.4 5.6 36.2 2.2 55.7 3.4 90.9-68.8 157.4-123.9 212.7-3.6 4.3-7.2 8.5-10.6 12.5l-1-0.7c-7.1 7.3-13.8 14.5-19.7 21.4C412.8 807.1 329 855.2 255.7 821.9c2.2 1.9 4.6 3.8 7.2 5.7 72.5 51.2 212.6-10.7 319-140.9z" fill="#C66005" p-id="14109"></path><path d="M517.4 679c6-7 12.7-14.1 19.7-21.4l1 0.7c3.4-3.9 6.9-8.1 10.6-12.5 55.1-55.3 127.4-121.8 123.9-212.7 3.4-19.5 3.1-38.4-2.2-55.7-11.3-11.3-24.6-22.6-40.5-33.9-26.6-18.8-51.1-31-74-37.2-73.7 4-159.5 67.6-229 201.5-22.4 38.2-39 73.2-51.6 105-32.1 81.4-36.9 141.4-40.2 177.6 3.7 12.7 10.5 22.8 20.5 31.5C329 855.2 412.8 807.1 517.4 679z m-49.1-51.1c-8.7 0-17.4-2.6-25-8-9.5-6.7-15.8-16.7-17.8-28.1-2-11.4 0.6-23 7.3-32.5 1.6-2.3 4.9-2.9 7.2-1.2 2.3 1.6 2.9 4.9 1.2 7.2-5.1 7.2-7.1 16-5.6 24.7s6.3 16.3 13.5 21.4c14.9 10.5 35.6 7 46.2-7.9 1.6-2.3 4.9-2.9 7.2-1.2 2.3 1.6 2.9 4.9 1.2 7.2-8.3 12-21.8 18.4-35.4 18.4z m-1.7-110.5c-6.8 9.6-20.2 11.9-29.8 5.1-9.6-6.8-11.9-20.2-5.1-29.8 6.8-9.6 20.2-11.9 29.8-5.1 9.6 6.8 11.9 20.2 5.1 29.8zM437 437.8c-3.1 3.7-7.5 5.6-12 5.6-3.5 0-7-1.2-9.9-3.6-6.6-5.5-7.5-15.3-2-21.9 18-21.5 35.8-39.5 52.9-53.5 6.7-5.4 16.4-4.4 21.9 2.3 5.4 6.7 4.4 16.5-2.3 21.9-15.5 12.6-31.9 29.2-48.6 49.2z m93.6 124.9c6.8-9.6 20.2-11.9 29.8-5.1 9.6 6.8 11.9 20.2 5.1 29.8-6.8 9.6-20.2 11.9-29.8 5.1-9.6-6.9-11.9-20.2-5.1-29.8z m38.9-212.3c-2.9 7.9-11.5 12-19.4 9.4-0.8-0.2-8.8-1.8-23.5 3.7-1.8 0.7-3.6 1-5.4 1-6.3 0-12.2-3.9-14.6-10.1-3-8 1.1-17 9.1-20 26.1-9.7 41.6-5 44.5-4 8.2 3.1 12.3 12 9.3 20z" fill="#FF7F00" p-id="14110"></path><path d="MNaN NaNaNaN NaN NaN 1 0 NaN NaN NaN NaN NaN 1 0 NaN NaNZ" fill="" p-id="14111"></path><path d="M565.5 587.3c6.8-9.6 4.5-23-5.1-29.8-9.6-6.8-23-4.5-29.8 5.1-6.8 9.6-4.5 23 5.1 29.8 9.7 6.9 23 4.6 29.8-5.1zM503.8 609.5c1.7-2.3 1.1-5.6-1.2-7.2-2.3-1.7-5.6-1.1-7.2 1.2-10.5 14.9-31.2 18.5-46.2 7.9-7.2-5.1-12-12.7-13.5-21.4s0.5-17.5 5.6-24.7c1.7-2.3 1.1-5.6-1.2-7.2-2.3-1.7-5.6-1.1-7.2 1.2-6.7 9.5-9.3 21-7.3 32.5 2 11.4 8.3 21.4 17.8 28.1 7.6 5.4 16.4 8 25 8 13.5 0 27-6.4 35.4-18.4z" fill="" p-id="14112"></path><path d="M487.9 366.6c-5.4-6.7-15.2-7.7-21.9-2.3-17.1 13.9-35 31.9-52.9 53.5-5.5 6.6-4.6 16.4 2 21.9 2.9 2.4 6.4 3.6 9.9 3.6 4.5 0 8.9-1.9 12-5.6 16.7-20 33-36.6 48.6-49.3 6.7-5.3 7.8-15.1 2.3-21.8zM560.3 330.5c-2.8-1-18.4-5.7-44.5 4-8 3-12.1 12-9.1 20 2.3 6.3 8.3 10.1 14.6 10.1 1.8 0 3.6-0.3 5.4-1 14.7-5.5 22.7-3.9 23.5-3.7 7.9 2.5 16.5-1.6 19.4-9.4 2.9-8.1-1.2-17-9.3-20z" fill="#FFFFFF" p-id="14113"></path></svg>